<?xml version="1.0" encoding="UTF-8" standalone="no"?>
<!-- Created with Inkscape (http://www.inkscape.org/) -->

<svg
   version="1.1"
   id="svg2"
   width="257.45334"
   height="409.04001"
   viewBox="0 0 257.45334 409.04001"
   sodipodi:docname="tmyl_oltu_170307.eps"
   xmlns:inkscape="http://www.inkscape.org/namespaces/inkscape"
   xmlns:sodipodi="http://sodipodi.sourceforge.net/DTD/sodipodi-0.dtd"
   xmlns="http://www.w3.org/2000/svg"
   xmlns:svg="http://www.w3.org/2000/svg">
  <defs
     id="defs6" />
  <sodipodi:namedview
     id="namedview4"
     pagecolor="#ffffff"
     bordercolor="#000000"
     borderopacity="0.25"
     inkscape:showpageshadow="2"
     inkscape:pageopacity="0.0"
     inkscape:pagecheckerboard="0"
     inkscape:deskcolor="#d1d1d1" />
  <g
     id="g8"
     inkscape:groupmode="layer"
     inkscape:label="ink_ext_XXXXXX"
     transform="matrix(1.3333333,0,0,-1.3333333,0,409.04)">
    <g
       id="g10"
       transform="scale(0.1)">
      <path
         d="m 1852.23,2142.35 -334.03,-0.05 52.25,-117.23 h 339.75 l -57.97,117.28"
         style="fill:#87491e;fill-opacity:1;fill-rule:nonzero;stroke:none"
         id="path12" />
      <path
         d="m 1518.2,2142.3 334.03,0.05 -18.66,8.72 -334.02,-0.06 0.09,-0.13 0.95,-0.38 17.61,-8.2"
         style="fill:#935022;fill-opacity:1;fill-rule:nonzero;stroke:none"
         id="path14" />
      <path
         d="m 1500.59,2150.5 -0.95,0.38 55.18,-118.41 15.63,-7.4 -52.25,117.23 -17.61,8.2"
         style="fill:#9e5726;fill-opacity:1;fill-rule:nonzero;stroke:none"
         id="path16" />
      <path
         d="m 1850.75,2173.65 -334.02,0.05 -92.03,68.57 h 339.74 l 86.31,-68.62"
         style="fill:#935022;fill-opacity:1;fill-rule:nonzero;stroke:none"
         id="path18" />
      <path
         d="m 1516.73,2173.7 v -14.97 l 334.02,-0.06 v 14.98 l -334.02,0.05"
         style="fill:#87491e;fill-opacity:1;fill-rule:nonzero;stroke:none"
         id="path20" />
      <path
         d="m 1424.7,2242.27 v -14.98 l 92.03,-68.56 v 14.97 l -92.03,68.57"
         style="fill:#9e5726;fill-opacity:1;fill-rule:nonzero;stroke:none"
         id="path22" />
      <path
         d="m 1678.37,2195.11 c -6.73,0.05 -443.59,0.03 -443.59,0.03 -5.64,-8.05 -1.65,-54.61 -1.65,-54.61 h 447.2 c 14.09,0.91 25.03,13.86 24.52,28.9 -0.6,15.1 -12.36,25.58 -26.48,25.68"
         style="fill:#3d210e;fill-opacity:1;fill-rule:nonzero;stroke:none"
         id="path24" />
      <path
         d="m 1228.02,2214.56 c -11.54,0.08 -266.348,0.06 -266.348,0.06 -9.652,-13.81 -2.817,-93.57 -2.817,-93.57 h 272.525 c 24.13,1.57 42.87,23.75 42.01,49.52 -1.05,25.86 -21.19,43.81 -45.37,43.99"
         style="fill:#562e12;fill-opacity:1;fill-rule:nonzero;stroke:none"
         id="path26" />
      <path
         d="m 958.02,2214.56 c -24.094,-1.52 -42.825,-23.7 -41.86,-49.49 0.942,-25.87 21.125,-45.58 45.219,-44.02 24.129,1.57 42.871,23.75 42.011,49.52 -1.05,25.86 -21.242,45.52 -45.37,43.99"
         style="fill:#753f1a;fill-opacity:1;fill-rule:nonzero;stroke:none"
         id="path28" />
      <path
         d="m 958.895,2204.04 c -18.641,-1.22 -33.172,-18.42 -32.457,-38.41 0.632,-20 16.367,-35.28 35.093,-34.05 18.657,1.16 33.254,18.37 32.5,38.38 -0.761,19.99 -16.394,35.3 -35.136,34.08"
         style="fill:#47210e;fill-opacity:1;fill-rule:nonzero;stroke:none"
         id="path30" />
      <path
         d="m 958.621,2197.2 c -14.148,-0.88 -25.437,-14.69 -24.82,-30.83 0.523,-16.09 12.644,-28.48 26.953,-27.57 14.449,0.93 25.516,14.76 24.976,30.86 -0.632,16.13 -12.664,28.49 -27.109,27.54"
         style="fill:#936134;fill-opacity:1;fill-rule:nonzero;stroke:none"
         id="path32" />
      <path
         d="m 1848.15,2188.1 -334.02,0.05 77.03,119.08 h 339.75 l -82.76,-119.13"
         style="fill:#87491e;fill-opacity:1;fill-rule:nonzero;stroke:none"
         id="path34" />
      <path
         d="m 1912.88,2315.32 h -327.19 l 5.47,-8.09 h 339.75 l -18.03,8.09"
         style="fill:#935022;fill-opacity:1;fill-rule:nonzero;stroke:none"
         id="path36" />
      <path
         d="m 1506.53,2195.14 c 5.83,0 7.6,-6.99 7.6,-6.99 l 77.03,119.08 -5.47,8.09 -79.16,-120.18"
         style="fill:#9e5726;fill-opacity:1;fill-rule:nonzero;stroke:none"
         id="path38" />
      <path
         d="M 1050.16,38.2695 1006.79,0 H 887.527 l 49.922,2191.25 h 62.771 L 1050.16,38.2695"
         style="fill:#663616;fill-opacity:1;fill-rule:nonzero;stroke:none"
         id="path40" />
      <path
         d="M 1006.79,0 H 887.527 l 49.922,2191.25 h 43.344 L 1006.79,0"
         style="fill:#87491e;fill-opacity:1;fill-rule:nonzero;stroke:none"
         id="path42" />
      <path
         d="m 1041.57,2357.9 v -1.17 l -0.08,1.16 z"
         style="fill:#94dcd6;fill-opacity:1;fill-rule:nonzero;stroke:none"
         id="path44" />
      <path
         d="m 762.344,2380.8 192.09,-213.47 174.726,-162.03 -23.61,-28.55 -175.167,158.36 -8.34,20.57 -185.344,190.31 25.645,34.81"
         style="fill:#936134;fill-opacity:1;fill-rule:nonzero;stroke:none"
         id="path46" />
      <path
         d="m 764.27,2386.75 192.039,-213.46 174.721,-162.06 -23.64,-28.55 -175.117,158.37 -8.394,20.58 -185.258,190.26 25.649,34.86"
         style="fill:#5d321a;fill-opacity:1;fill-rule:nonzero;stroke:none"
         id="path48" />
      <path
         d="m 1138.72,2175.68 c -8.33,-11.02 -116.81,-242.72 -115.2,-253.32 1.59,-10.72 597.5,-688.89 615,-682.11 17.33,6.65 213.49,348.57 204.43,372.86 -9.2,24.38 -696.21,573.5 -704.23,562.57"
         style="fill:#c7b8b3;fill-opacity:1;fill-rule:nonzero;stroke:none"
         id="path50" />
      <path
         d="m 1824.6,1603.68 c -8.22,10.18 -114.01,99.02 -122.16,87.89 -8.16,-11.26 -88.23,-128.15 -84.02,-134.15 4.22,-5.91 107.27,-110.7 116.32,-101.31 9.06,9.41 100.15,134.68 89.86,147.57"
         style="fill:#e8e1de;fill-opacity:1;fill-rule:nonzero;stroke:none"
         id="path52" />
      <path
         d="m 1721.58,1419.75 c -0.42,9.31 -120,117.4 -123.31,110.43 -3.42,-6.95 -71.6,-105.9 -71.52,-112.81 0.18,-6.92 106.71,-130.42 113.9,-125.86 7.19,4.62 80.93,128.24 80.93,128.24"
         style="fill:#e8e1de;fill-opacity:1;fill-rule:nonzero;stroke:none"
         id="path54" />
      <path
         d="m 1660.23,1732.13 c 0.08,6.69 -121.88,112.11 -125.96,100.85 -4.05,-11.23 -73.19,-120.15 -70.65,-126.69 2.54,-6.55 118.35,-126.16 121.4,-120.21 3.05,5.92 74.99,134.67 75.21,146.05"
         style="fill:#e8e1de;fill-opacity:1;fill-rule:nonzero;stroke:none"
         id="path56" />
      <path
         d="m 1572.48,1561.34 c -2.61,-6.39 -72.58,-130.83 -76.75,-129.53 -4.13,1.37 -110.59,101.8 -111.51,112.53 -0.92,10.57 61.8,130.75 69.74,132.83 7.96,2.08 121.45,-108.47 118.52,-115.83"
         style="fill:#e8e1de;fill-opacity:1;fill-rule:nonzero;stroke:none"
         id="path58" />
      <path
         d="m 1510.35,1854.49 c -2.64,-8.06 -64.43,-129.61 -68.51,-128.99 -4.13,0.46 -119.8,115.4 -122.2,123.07 -2.48,7.64 52.86,133.13 58.67,128.68 5.83,-4.47 135.48,-112.34 132.04,-122.76"
         style="fill:#e8e1de;fill-opacity:1;fill-rule:nonzero;stroke:none"
         id="path60" />
      <path
         d="m 1430.5,1704.18 c -2.86,-9.52 -69.1,-135.11 -73.08,-129.41 -3.88,5.71 -107.73,109.13 -106.8,117.28 0.93,8.2 55.02,135.69 60.84,133.83 5.83,-1.77 121.81,-112.27 119.04,-121.7"
         style="fill:#e8e1de;fill-opacity:1;fill-rule:nonzero;stroke:none"
         id="path62" />
      <path
         d="m 1358.7,1989.27 c -1.23,6.23 -103.17,88.63 -106.09,81.05 -2.99,-7.66 -58.12,-119.2 -55.7,-122.62 2.45,-3.45 101.62,-95.92 105.89,-91.49 4.33,4.36 58.5,119.88 55.9,133.06"
         style="fill:#e8e1de;fill-opacity:1;fill-rule:nonzero;stroke:none"
         id="path64" />
      <path
         d="m 1297.52,1839.53 c -1.71,-8.07 -59.39,-145.01 -65.19,-141.6 -5.78,3.34 -101.44,106.92 -99.08,112.69 2.38,5.74 49.88,126.16 58.62,121.09 8.74,-5.07 107.47,-83.63 105.65,-92.18"
         style="fill:#e8e1de;fill-opacity:1;fill-rule:nonzero;stroke:none"
         id="path66" />
      <path
         d="m 1239.16,2081.64 c -2.11,-7.83 -48.49,-105 -56.63,-108.06 -8.14,-2.97 -79.79,53.41 -81.2,65.21 -1.4,11.79 46.61,119.43 52.04,114.84 5.45,-4.65 87.94,-63.93 85.79,-71.99"
         style="fill:#e8e1de;fill-opacity:1;fill-rule:nonzero;stroke:none"
         id="path68" />
      <path
         d="m 1170.51,1950.29 c 2.24,-10.7 -37.73,-103.26 -49.55,-100.58 -11.74,2.66 -68.84,56.36 -73.02,69.2 -4.21,12.86 32.22,102.33 45.73,95.74 13.37,-6.55 74.31,-51.75 76.84,-64.36"
         style="fill:#e8e1de;fill-opacity:1;fill-rule:nonzero;stroke:none"
         id="path70" />
      <path
         d="m 1110.59,2042.68 c 1.31,-10.55 58.39,-56.53 76.54,-64.16 -2.02,-2.83 -3.56,-4.57 -4.6,-4.94 -8.14,-3.03 -79.8,53.4 -81.2,65.12 -1.43,11.82 46.61,119.49 52.02,114.85 0.54,-0.43 1.61,-1.26 3.26,-2.55 -14.31,-22.86 -47.19,-98.54 -46.02,-108.32"
         style="fill:#cccccc;fill-opacity:1;fill-rule:nonzero;stroke:none"
         id="path72" />
      <path
         d="m 1627.71,1561.36 c 3.79,-5.34 87.16,-90.27 110.74,-100.83 -1.73,-2.1 -3.07,-3.75 -3.68,-4.44 -9.14,-9.36 -112.13,95.37 -116.32,101.29 -4.24,5.96 75.83,122.91 83.97,134.13 0.92,1.32 3.32,1.19 6.54,0.07 -16.19,-23.17 -85.21,-124.76 -81.25,-130.22"
         style="fill:#cccccc;fill-opacity:1;fill-rule:nonzero;stroke:none"
         id="path74" />
      <path
         d="m 1603.9,1528.11 c -14.73,-22.87 -67.95,-100.76 -67.86,-106.85 0.09,-6.28 87.67,-108.25 109.4,-123.92 -2.25,-3.25 -4.01,-5.35 -4.79,-5.83 -7.21,-4.59 -113.83,118.9 -113.9,125.86 -0.11,6.88 68.06,105.83 71.51,112.76 0.37,0.82 2.43,-0.04 5.64,-2.02"
         style="fill:#cccccc;fill-opacity:1;fill-rule:nonzero;stroke:none"
         id="path76" />
      <path
         d="m 1472.88,1710.17 c 2.23,-5.78 92.28,-99.07 115.84,-117.28 -1.99,-3.74 -3.37,-6.22 -3.74,-6.84 -3.04,-5.93 -118.82,113.69 -121.39,120.16 -2.47,6.57 66.63,115.54 70.65,126.73 0.53,1.49 3.03,0.91 6.91,-0.99 -12.91,-24.17 -70.57,-115.81 -68.27,-121.78"
         style="fill:#cccccc;fill-opacity:1;fill-rule:nonzero;stroke:none"
         id="path78" />
      <path
         d="m 1458.03,1675.38 c -17.21,-24.25 -65.34,-117.86 -64.6,-127.18 0.83,-9.66 88.52,-93.21 107.98,-109.67 -3.05,-4.4 -5.06,-6.96 -5.66,-6.74 -4.18,1.39 -110.61,101.82 -111.57,112.47 -0.93,10.6 61.84,130.83 69.77,132.9 0.65,0.17 2.09,-0.48 4.08,-1.78"
         style="fill:#cccccc;fill-opacity:1;fill-rule:nonzero;stroke:none"
         id="path80" />
      <path
         d="m 1328.91,1852.49 c 2.19,-6.96 97.03,-101.63 118.15,-120.07 -2.73,-4.52 -4.6,-7.12 -5.25,-7.03 -4.1,0.52 -119.82,115.51 -122.18,123.11 -2.47,7.71 52.85,133.16 58.74,128.69 0.37,-0.37 1.54,-1.3 3.2,-2.66 -15.69,-25.52 -54.71,-115.6 -52.66,-122.04"
         style="fill:#cccccc;fill-opacity:1;fill-rule:nonzero;stroke:none"
         id="path82" />
      <path
         d="m 1311.44,1825.83 c 0.52,-0.17 1.9,-1.17 3.95,-2.84 -15.21,-26.22 -54.77,-120.02 -55.51,-127 -0.83,-7.52 87.38,-96.09 104.12,-114.27 -3.48,-5.23 -5.97,-7.97 -6.58,-7.03 -3.92,5.73 -107.74,109.15 -106.86,117.31 0.92,8.27 55.06,135.73 60.88,133.83"
         style="fill:#cccccc;fill-opacity:1;fill-rule:nonzero;stroke:none"
         id="path84" />
      <path
         d="m 1196.96,1947.64 c -2.44,3.45 52.65,115.01 55.66,122.57 0.35,1.11 2.86,0.32 6.63,-1.74 -11.32,-24.36 -55.15,-113.83 -53.06,-116.9 2.1,-2.97 78.6,-74.34 100.3,-89.02 -1.89,-3.58 -3.16,-5.83 -3.71,-6.41 -1.43,-1.45 -13.96,8.3 -29.9,21.96 l -2.24,1.94 c -30.62,26.41 -72.15,65.41 -73.68,67.6"
         style="fill:#cccccc;fill-opacity:1;fill-rule:nonzero;stroke:none"
         id="path86" />
      <path
         d="m 1191.87,1931.71 c 0.51,-0.36 1.51,-0.99 2.69,-1.89 -15.78,-23.68 -49.99,-110.41 -52.05,-115.37 -2.16,-5.24 77.11,-91.68 95.53,-109.53 -2.78,-4.9 -4.89,-7.62 -5.69,-7.09 -5.79,3.41 -101.54,106.96 -99.15,112.71 2.43,5.82 49.86,126.2 58.67,121.17"
         style="fill:#cccccc;fill-opacity:1;fill-rule:nonzero;stroke:none"
         id="path88" />
      <path
         d="m 1093.67,2014.63 0.56,-0.4 c -16.05,-17.66 -40.53,-80.77 -37.02,-91.39 3.92,-12.17 55.56,-61.22 70.86,-68.39 -2.84,-3.43 -5.28,-5.19 -7.12,-4.77 -11.76,2.62 -68.85,56.35 -73.07,69.26 -4.12,12.76 32.33,102.25 45.79,95.69"
         style="fill:#cccccc;fill-opacity:1;fill-rule:nonzero;stroke:none"
         id="path90" />
      <path
         d="m 1776.08,1598.72 c -5.18,6.48 -49.78,44.69 -83.65,68.79 7.13,10.62 13.14,19.36 16.63,24.39 25,-8.54 108.42,-78.95 115.58,-87.92 9.46,-11.81 -66.66,-118.75 -86.04,-143.14 -6.33,2.86 -16.85,10.92 -28.87,21.28 29.2,40.71 73.69,107.47 66.35,116.6"
         style="fill:#ebebeb;fill-opacity:1;fill-rule:nonzero;stroke:none"
         id="path92" />
      <path
         d="m 1611.68,1727.24 c 0.05,4.26 -49.48,48.6 -86.48,77.26 6.97,11.85 12.89,21.83 16.1,27.7 26.41,-13.14 119.12,-93.99 119.03,-99.79 -0.18,-10.06 -56.24,-111.48 -71.5,-139.21 -6.32,4.87 -17.49,15.21 -30.46,27.9 22.2,40.62 53.2,98.65 53.31,106.14"
         style="fill:#ebebeb;fill-opacity:1;fill-rule:nonzero;stroke:none"
         id="path94" />
      <path
         d="m 1365.33,1943.95 c 6.53,13.47 12.38,25.16 16.73,32.08 21.04,-17.28 132.05,-110.44 128.76,-120.03 -2.33,-6.93 -47.44,-96.13 -63.28,-122.07 -5.66,4.97 -16.83,15.57 -29.97,28.38 19.17,35.94 42.95,83.48 44.65,88.43 2.36,7.09 -56.85,59.26 -96.89,93.21"
         style="fill:#ebebeb;fill-opacity:1;fill-rule:nonzero;stroke:none"
         id="path96" />
      <path
         d="m 1585.3,1499.7 c 7.93,11.83 14.83,22.22 18.83,28.46 24.16,-15.08 117.3,-100.23 117.67,-108.46 0,0 -58,-97.24 -76.13,-122.36 -5.61,4.1 -15.85,14.06 -27.7,26.65 23.83,37.85 55.19,90.52 55.19,90.52 -0.2,6.07 -51.47,54.39 -87.86,85.19"
         style="fill:#ebebeb;fill-opacity:1;fill-rule:nonzero;stroke:none"
         id="path98" />
      <path
         d="m 1439.86,1645 c 7.33,13.04 13.92,24.05 18.4,30.44 21.97,-13.93 117.11,-107.35 114.45,-114.1 -2.25,-5.51 -53.58,-97.04 -71.11,-122.76 -5.44,4.57 -16.24,14.46 -28.94,26.55 21.71,36.63 49.74,86.93 51.42,91 1.94,4.95 -48.39,56.21 -84.22,88.87"
         style="fill:#ebebeb;fill-opacity:1;fill-rule:nonzero;stroke:none"
         id="path100" />
      <path
         d="m 1298.72,1788.91 c 6.61,14.33 12.74,26.81 16.9,34.09 21.23,-17.46 117.61,-110.27 115.05,-118.85 -2.32,-7.87 -48.67,-96.42 -66.41,-122.38 -4.79,5.19 -15.35,16.05 -27.97,29.17 20.07,35.74 44.08,82.33 45.72,88.01 1.87,6.16 -47.54,56.01 -83.29,89.96"
         style="fill:#ebebeb;fill-opacity:1;fill-rule:nonzero;stroke:none"
         id="path102" />
      <path
         d="m 1310.3,1984.09 c -0.75,3.56 -35.23,32.74 -64.73,55.17 5.89,12.33 11.01,22.98 13.97,29.19 23.18,-12.47 98.3,-73.86 99.32,-79.16 2.34,-11.54 -38.9,-101.53 -52.1,-126.71 -6.87,4.64 -19.19,14.93 -33.05,26.99 16.9,36.28 38.29,86.06 36.59,94.52"
         style="fill:#ebebeb;fill-opacity:1;fill-rule:nonzero;stroke:none"
         id="path104" />
      <path
         d="m 1249.15,1834.32 c 1.14,5.46 -39.03,39.8 -70.41,65 6.06,12.91 11.77,24.08 16.07,30.48 18.27,-12.96 104.68,-82.3 102.94,-90.35 -1.44,-6.72 -43.4,-106.74 -59.47,-134.51 -5.67,5.52 -17.18,17.63 -30.33,31.78 18.27,39.71 40.18,92.68 41.2,97.6"
         style="fill:#ebebeb;fill-opacity:1;fill-rule:nonzero;stroke:none"
         id="path106" />
      <path
         d="m 1141.16,2121.07 c 5.93,12.44 11.57,23.42 15.71,30 16.33,-12.41 84.45,-62.15 82.5,-69.43 -1.88,-6.92 -37.82,-82.67 -52.08,-103.03 -6.97,2.91 -19.8,11.6 -32.97,21.74 15.88,30.08 35.09,71.07 36.47,76.11 1.23,4.58 -25.56,26.2 -49.63,44.61"
         style="fill:#ebebeb;fill-opacity:1;fill-rule:nonzero;stroke:none"
         id="path108" />
      <path
         d="m 1122.11,1945.03 c -1.51,7.47 -23.59,26.52 -44.22,42.08 5.66,11.48 11.57,21.55 16.65,27.16 14.43,-7.47 73.63,-51.57 76.17,-64 1.92,-9.13 -26.56,-76.99 -42.44,-95.82 -6.15,2.9 -18.42,12.8 -30.93,24.24 13.31,26.67 26.07,60.23 24.77,66.34"
         style="fill:#ebebeb;fill-opacity:1;fill-rule:nonzero;stroke:none"
         id="path110" />
      <path
         d="m 917.52,2387.8 c 1.64,-6.2 -188.973,-136.79 -193.79,-137.64 -4.777,-0.93 -647.7027,567.75 -644.7456,580.6 2.9219,12.82 268.4766,222.41 286.0036,216.85 17.571,-5.63 542.871,-622.4 552.532,-659.81"
         style="fill:#ae9d93;fill-opacity:1;fill-rule:nonzero;stroke:none"
         id="path112" />
      <path
         d="m 907.285,2405.54 c 1.707,-6.24 -190.39,-136.39 -195.215,-137.24 -4.914,-0.84 -655.9255,570.36 -652.9684,583.25 2.9101,12.83 270.4614,221.79 288.1324,216.12 17.766,-5.63 550.168,-624.63 560.051,-662.13"
         style="fill:#c7b8b3;fill-opacity:1;fill-rule:nonzero;stroke:none"
         id="path114" />
      <path
         d="m 451.355,2925.45 c 0.325,-8.79 -108.347,-80.36 -117.339,-76.4 -9.094,4.06 -112.461,116.19 -107.649,120.41 4.871,4.22 91.555,67.37 104.348,67.9 12.801,0.52 120.113,-99.08 120.64,-111.91"
         style="fill:#e8e1de;fill-opacity:1;fill-rule:nonzero;stroke:none"
         id="path116" />
      <path
         d="m 309.91,2838.36 c -5.105,-5.77 -110.711,-79.66 -123.172,-80.26 -12.468,-0.61 -97.8903,78.72 -101.6599,92.07 -3.75,13.31 118.8599,106.91 128.0349,99.42 9.145,-7.53 101.528,-106.01 96.797,-111.23"
         style="fill:#e8e1de;fill-opacity:1;fill-rule:nonzero;stroke:none"
         id="path118" />
      <path
         d="m 467.512,2900.31 c -12.285,7.79 -119.883,-67.06 -115.949,-72.85 3.875,-5.84 107.238,-126.43 115.449,-118.72 8.183,7.66 102.004,66.67 101.933,73.65 -0.097,6.9 -89.05,110.1 -101.433,117.92"
         style="fill:#e8e1de;fill-opacity:1;fill-rule:nonzero;stroke:none"
         id="path120" />
      <path
         d="m 441.121,2686.5 c -6.609,-0.7 -85.762,-73.98 -88.641,-71.93 -2.871,2.11 -146.699,120.26 -136.777,126.28 9.949,6.03 105.879,74.08 116.375,70.86 10.41,-3.25 119.777,-124.03 109.043,-125.21"
         style="fill:#e8e1de;fill-opacity:1;fill-rule:nonzero;stroke:none"
         id="path122" />
      <path
         d="m 598.445,2748.86 c -8.574,2.71 -111.265,-67.97 -107.675,-71.43 3.488,-3.41 113.007,-114.06 119.503,-111.53 6.563,2.49 96.122,60.15 88.02,70.77 -8.137,10.61 -88.383,108.55 -99.848,112.19"
         style="fill:#e8e1de;fill-opacity:1;fill-rule:nonzero;stroke:none"
         id="path124" />
      <path
         d="m 588.406,2544.11 c 6.223,-6.93 -71.836,-63.24 -75.972,-61.96 -4.153,1.32 -142.09,113.01 -139.399,117.84 2.707,4.92 93.012,75.57 98.371,67.21 5.41,-8.28 112.864,-118.29 117,-123.09"
         style="fill:#e8e1de;fill-opacity:1;fill-rule:nonzero;stroke:none"
         id="path126" />
      <path
         d="m 720.293,2597.51 c -4.773,-1.79 -87.422,-53.33 -87.324,-57.99 0.027,-4.59 68.719,-82.39 73.625,-81.63 4.734,0.81 76.179,59.25 77.476,63.4 1.418,4.19 -58.433,78.21 -63.777,76.22"
         style="fill:#e8e1de;fill-opacity:1;fill-rule:nonzero;stroke:none"
         id="path128" />
      <path
         d="m 690.266,2445.42 c -3.403,-3.08 -69.797,-58.13 -73.735,-56.09 -3.926,1.98 -87.398,66.07 -84.019,71.17 3.355,5.04 79.031,72.05 83.843,70.16 4.719,-1.91 80.122,-79.64 73.911,-85.24"
         style="fill:#e8e1de;fill-opacity:1;fill-rule:nonzero;stroke:none"
         id="path130" />
      <path
         d="m 801.113,2504.97 c -7.175,-3.59 -85.207,-58.43 -81.933,-62.53 3.269,-4.14 67.722,-75.95 74.668,-75.87 6.933,0.13 76.828,41.73 78.925,48.16 2.051,6.49 -64.187,94.01 -71.66,90.24"
         style="fill:#e8e1de;fill-opacity:1;fill-rule:nonzero;stroke:none"
         id="path132" />
      <path
         d="m 701.582,2432.92 c -6.152,-2.85 -71.594,-51.7 -72.422,-54.53 -0.945,-2.75 75.52,-70.68 86.367,-72.67 10.868,-1.88 63.047,32.18 62.227,41.58 -0.84,9.37 -69.524,88.65 -76.172,85.62"
         style="fill:#e8e1de;fill-opacity:1;fill-rule:nonzero;stroke:none"
         id="path134" />
      <path
         d="m 338.152,3025.5 c -12.754,-0.52 -99.468,-63.68 -104.257,-67.85 -0.282,-0.29 -0.204,-0.97 0.316,-2.02 -5.773,7.37 -8.969,12.34 -8.039,13.13 4.812,4.22 91.555,67.38 104.316,67.9 12.395,0.54 113.926,-93.37 120.305,-110.54 -25.219,30.29 -101.848,99.82 -112.641,99.38"
         style="fill:#cccccc;fill-opacity:1;fill-rule:nonzero;stroke:none"
         id="path136" />
      <path
         d="m 212.938,2948.88 c 8.41,-6.9 87.277,-90.92 96.046,-108.26 -22.265,28.74 -81.132,91.19 -88.41,97.09 -9.09,7.53 -131.7927,-86.03 -128.0154,-99.38 -4.2695,5.01 -7.0703,8.97 -7.6875,11.15 -3.7578,13.32 118.9379,106.9 128.0669,99.4"
         style="fill:#cccccc;fill-opacity:1;fill-rule:nonzero;stroke:none"
         id="path138" />
      <path
         d="m 359.348,2816.95 c -4.524,5.31 -7.422,8.91 -8.059,9.76 -3.828,5.82 103.66,80.7 115.969,72.95 11.89,-7.52 93.406,-101.91 100.816,-116.45 -22.332,29.44 -82.969,98.86 -93.191,105.3 -11.641,7.37 -109.207,-59.85 -115.535,-71.56"
         style="fill:#cccccc;fill-opacity:1;fill-rule:nonzero;stroke:none"
         id="path140" />
      <path
         d="m 331.863,2810.99 c 9.121,-2.82 94.067,-95.74 107.832,-119.63 -25.175,33.51 -92.144,105.96 -100.164,108.51 -10.476,3.21 -106.379,-64.86 -116.34,-70.89 l -0.503,-0.89 c -5.95,6.57 -8.899,11.01 -7.168,12.06 9.918,6.03 105.867,74.11 116.343,70.84"
         style="fill:#cccccc;fill-opacity:1;fill-rule:nonzero;stroke:none"
         id="path142" />
      <path
         d="m 499.52,2667.82 c -5.196,5.09 -8.434,8.38 -8.985,8.95 -3.523,3.39 99.106,74.12 107.688,71.4 11.511,-3.67 91.75,-101.57 99.797,-112.2 l 0.359,-1.95 c -21.934,27.18 -82.617,99.86 -92.41,102.98 -7.949,2.51 -94.797,-56.72 -106.449,-69.18"
         style="fill:#cccccc;fill-opacity:1;fill-rule:nonzero;stroke:none"
         id="path144" />
      <path
         d="m 471.191,2666.55 c 5.364,-8.32 112.793,-118.32 117.051,-123.1 0.496,-0.57 0.266,-1.63 -0.273,-2.81 -25.762,26.7 -104.531,107.68 -109.09,114.77 -5.141,7.9 -87.102,-55.73 -97.348,-66.02 -5.816,5.5 -9.168,9.17 -8.699,9.93 2.727,4.9 92.949,75.56 98.359,67.23"
         style="fill:#cccccc;fill-opacity:1;fill-rule:nonzero;stroke:none"
         id="path146" />
      <path
         d="m 727.695,2585.67 c -4.726,-1.74 -86.308,-52.71 -87.199,-57.83 -4.754,5.88 -7.82,10.04 -7.762,11.03 -0.046,4.6 82.547,56.2 87.317,57.95 4.82,1.73 52.742,-56.81 62.183,-72.48 -16.746,22.7 -50.449,62.8 -54.539,61.33"
         style="fill:#cccccc;fill-opacity:1;fill-rule:nonzero;stroke:none"
         id="path148" />
      <path
         d="m 616.133,2529.98 c 4.14,-1.69 63.242,-62.27 72.969,-80.46 -19.114,24.46 -61.747,67.93 -65.286,69.3 -4.644,1.82 -75.156,-60.44 -83.191,-69.38 -5.754,5.38 -9.043,9.24 -8.367,10.32 3.387,5.04 79.097,72.1 83.875,70.22"
         style="fill:#cccccc;fill-opacity:1;fill-rule:nonzero;stroke:none"
         id="path150" />
      <path
         d="m 808.613,2493.13 c -6.679,-3.37 -74.093,-50.66 -81.34,-60.81 -4.5,5.02 -7.625,8.59 -8.296,9.41 -3.254,4.12 74.683,58.91 81.875,62.58 5.757,2.78 45,-46.53 62.832,-73.55 -19.563,27.49 -50.11,64.84 -55.071,62.37"
         style="fill:#cccccc;fill-opacity:1;fill-rule:nonzero;stroke:none"
         id="path152" />
      <path
         d="m 701.387,2432.19 c 6.015,2.8 63.047,-62.18 74.289,-81.33 -19.336,25.77 -61.504,72.59 -66.621,70.19 -5.649,-2.64 -62.192,-44.71 -71.145,-53.1 -5.676,5.41 -9.172,9.15 -9.004,9.78 0.324,0.92 7.793,6.92 17.782,14.62 1.339,1.06 2.753,2.16 4.203,3.24 19.832,15.27 46.629,34.85 50.496,36.6"
         style="fill:#cccccc;fill-opacity:1;fill-rule:nonzero;stroke:none"
         id="path154" />
      <path
         d="m 418.254,2923.21 -0.316,1.36 c -20.848,25.05 -77,77.04 -101.754,93.89 10.339,6.26 18.425,10.58 21.714,10.67 10.754,0.43 87.407,-69.1 112.54,-99.37 l 0.421,-1.36 c 0.34,-8.79 -108.332,-80.4 -117.375,-76.36 -1.074,0.44 -3.543,2.58 -6.921,5.71 34.832,19.63 91.984,59.05 91.691,65.46"
         style="fill:#ebebeb;fill-opacity:1;fill-rule:nonzero;stroke:none"
         id="path156" />
      <path
         d="m 276.172,2839.07 c -18.945,24.36 -64.238,73.06 -81.902,90.8 13.582,8.54 23.652,13.45 26.089,11.51 7.192,-5.96 66.094,-68.4 88.371,-97.13 0.743,-1.47 1.055,-2.54 0.645,-2.95 -5.117,-5.74 -110.684,-79.64 -123.152,-80.22 -1.993,-0.15 -5.981,1.89 -11.157,5.35 34.789,20.75 97.805,65.25 101.797,69.66 0.403,0.4 0.078,1.5 -0.691,2.98"
         style="fill:#ebebeb;fill-opacity:1;fill-rule:nonzero;stroke:none"
         id="path158" />
      <path
         d="m 535.281,2781.66 c -20.105,26.34 -70.625,84.52 -88.34,101.09 13.657,7.34 24.336,11.52 27.676,9.34 10.129,-6.37 70.871,-75.82 93.176,-105.22 l 0.645,-1.58 c 0.078,-6.88 -93.797,-65.94 -101.946,-73.64 -1.551,-1.45 -6.656,1.84 -13.902,8.1 29.715,20.11 83.367,55.09 83.223,60.36 l -0.532,1.55"
         style="fill:#ebebeb;fill-opacity:1;fill-rule:nonzero;stroke:none"
         id="path160" />
      <path
         d="m 408.035,2684.25 c 1.328,0.13 0.742,2.15 -1.148,5.53 -21.367,28.36 -72.453,84.54 -92.563,102.68 12.434,7.27 22.031,11.95 24.922,11.04 8.059,-2.5 74.984,-75.04 100.207,-108.47 1.942,-3.4 2.512,-5.42 1.192,-5.57 -6.668,-0.67 -85.735,-74 -88.594,-71.92 -0.496,0.36 -5.164,4.13 -12.449,10.12 24.746,21.02 63.867,56.1 68.433,56.59"
         style="fill:#ebebeb;fill-opacity:1;fill-rule:nonzero;stroke:none"
         id="path162" />
      <path
         d="m 581.277,2729.05 c 12.493,7.48 22.004,12.35 24.407,11.59 9.804,-3.14 70.41,-75.81 92.48,-102.98 -0.84,-14.16 -82.117,-66.46 -88.359,-68.83 -1.075,-0.42 -5.364,2.53 -11.535,7.68 26.046,17.03 66.691,45.95 67.296,55.95 -18.625,22.88 -64.445,77.92 -84.289,96.59"
         style="fill:#ebebeb;fill-opacity:1;fill-rule:nonzero;stroke:none"
         id="path164" />
      <path
         d="m 451.953,2646.82 c 13.953,9.2 24.883,14.91 26.652,12.21 4.532,-7.07 83.336,-88.05 109,-114.76 -6.101,-13.21 -71.824,-60.37 -75.625,-59.16 -0.718,0.23 -4.585,3.12 -10.82,7.91 20.981,14.71 49.895,37.49 53.899,46.03 -22.168,22.96 -83.457,86.07 -103.106,107.77"
         style="fill:#ebebeb;fill-opacity:1;fill-rule:nonzero;stroke:none"
         id="path166" />
      <path
         d="m 749.324,2522.8 c -11.719,15.94 -31.914,40.49 -44.324,53.17 11.848,7.37 20.996,12.78 22.5,13.32 4.004,1.46 37.734,-38.63 54.453,-61.33 1.094,-1.85 1.817,-3.27 1.66,-3.74 -1.289,-4.17 -72.793,-62.56 -77.597,-63.35 -1.082,-0.18 -5.536,3.77 -11.621,9.86 22.785,17.82 55.781,45.5 56.652,48.29 0.113,0.43 -0.578,1.89 -1.723,3.78"
         style="fill:#ebebeb;fill-opacity:1;fill-rule:nonzero;stroke:none"
         id="path168" />
      <path
         d="m 656.238,2447.96 c -13.718,17.56 -39.644,44.92 -54.402,59.45 11.367,9.16 20.129,15.64 21.66,15.03 3.535,-1.4 46.301,-44.85 65.344,-69.31 1.187,-2.41 1.687,-4.09 0.933,-4.76 -3.335,-3.08 -69.785,-58.16 -73.75,-56.09 -0.796,0.41 -5.242,3.59 -11.558,8.42 21.055,15.92 50.547,40.46 52.754,42.47 0.719,0.65 0.301,2.39 -0.981,4.79"
         style="fill:#ebebeb;fill-opacity:1;fill-rule:nonzero;stroke:none"
         id="path170" />
      <path
         d="m 830.82,2429.16 c -13.152,18.53 -31.316,41.51 -43.293,53.77 10.481,7.29 18.664,12.76 20.786,13.84 4.949,2.51 35.488,-34.88 55.054,-62.42 5.832,-8.65 9.375,-15.06 8.891,-16.65 -2.043,-6.46 -72.016,-48.06 -78.867,-48.16 -1.289,-0.04 -4.485,2.42 -8.801,6.29 22.871,12.88 53.703,32.43 55.105,36.69 0.461,1.57 -3.074,7.95 -8.875,16.64"
         style="fill:#ebebeb;fill-opacity:1;fill-rule:nonzero;stroke:none"
         id="path172" />
      <path
         d="m 744.695,2345.02 c -0.078,0.86 -0.75,2.33 -1.941,4.27 -13.652,18.3 -38.848,47.09 -54.094,61.45 10.031,7.31 18.149,13.03 20.149,13.9 5.168,2.41 47.238,-44.38 66.582,-70.09 1.101,-1.95 1.804,-3.43 1.867,-4.31 0.801,-9.39 -51.391,-43.53 -62.238,-41.54 -1.575,0.29 -4.407,1.88 -8.145,4.48 17.852,10.31 38.328,25.96 37.82,31.84"
         style="fill:#ebebeb;fill-opacity:1;fill-rule:nonzero;stroke:none"
         id="path174" />
      <path
         d="m 1123.21,2322.57 -5.69,15.98 -10.22,9.33 -362.027,-362.63 0.196,-10.45 16.047,-1.56 361.694,349.33"
         style="fill:#5d321a;fill-opacity:1;fill-rule:nonzero;stroke:none"
         id="path176" />
      <path
         d="m 1132.29,2318.5 -373.442,-365.7 -13.379,22 372.051,363.75 14.77,-20.05"
         style="fill:#936134;fill-opacity:1;fill-rule:nonzero;stroke:none"
         id="path178" />
      <path
         d="m 1138.66,2225.29 c -6.77,-1.79 -150.105,167.9 -151.101,172.3 -0.938,4.35 609.211,623.97 623.161,621.83 13.97,-2.14 243.61,-237.14 237.73,-253.63 -5.9,-16.39 -669.42,-529.78 -709.79,-540.5"
         style="fill:#ae9d93;fill-opacity:1;fill-rule:nonzero;stroke:none"
         id="path180" />
      <path
         d="m 1157.74,2235.57 c -6.81,-1.75 -149.61,169.23 -150.59,173.66 -0.95,4.43 611.92,631.64 625.97,629.48 13.91,-2.1 242.9,-239 236.95,-255.58 -5.87,-16.69 -671.86,-536.68 -712.33,-547.56"
         style="fill:#c7b8b3;fill-opacity:1;fill-rule:nonzero;stroke:none"
         id="path182" />
      <path
         d="m 1716.87,2680.45 c -9.46,-0.74 -88.14,96.14 -83.85,104.66 4.32,8.52 124.84,109.05 129.45,104.82 4.63,-4.21 73.87,-81.22 74.57,-93 0.71,-11.77 -106.24,-115.38 -120.17,-116.48"
         style="fill:#e8e1de;fill-opacity:1;fill-rule:nonzero;stroke:none"
         id="path184" />
      <path
         d="m 1621.2,2806.8 c -6.29,4.5 -87.4,98.37 -88.15,109.83 -0.84,11.49 84.36,94 98.8,98.05 14.42,4.12 117.02,-104.61 108.92,-113.39 -8.02,-8.85 -113.86,-98.58 -119.57,-94.49"
         style="fill:#e8e1de;fill-opacity:1;fill-rule:nonzero;stroke:none"
         id="path186" />
      <path
         d="m 1689.84,2664.43 c 8.29,11.65 -73.86,107.35 -80.18,103.47 -6.24,-3.86 -135.93,-104.85 -127.5,-112.04 8.43,-7.22 73.26,-90.95 80.83,-90.58 7.52,0.43 118.48,87.29 126.85,99.15"
         style="fill:#e8e1de;fill-opacity:1;fill-rule:nonzero;stroke:none"
         id="path188" />
      <path
         d="m 1457.82,2678.69 c -0.81,6.06 -80.94,75.57 -78.75,78.32 2.27,2.74 128.88,140.99 135.57,132.12 6.57,-8.93 81.29,-94.2 77.87,-104 -3.43,-9.77 -133.22,-116.28 -134.69,-106.44"
         style="fill:#e8e1de;fill-opacity:1;fill-rule:nonzero;stroke:none"
         id="path190" />
      <path
         d="m 1526.95,2536.52 c 2.87,8.04 -74.81,99.37 -78.47,96 -3.64,-3.42 -122.51,-109.63 -119.73,-115.52 2.79,-5.91 66.12,-85.78 77.51,-77.83 11.45,7.94 116.77,86.58 120.69,97.35"
         style="fill:#e8e1de;fill-opacity:1;fill-rule:nonzero;stroke:none"
         id="path192" />
      <path
         d="m 1304.87,2536.13 c -7.45,-5.96 -69.18,63.29 -67.85,67.2 1.47,3.91 121.12,136.35 126.45,134.07 5.33,-2.28 82.74,-82.18 73.79,-87.57 -9.04,-5.33 -127.19,-109.59 -132.39,-113.7"
         style="fill:#e8e1de;fill-opacity:1;fill-rule:nonzero;stroke:none"
         id="path194" />
      <path
         d="m 1364.05,2417.07 c -1.94,4.29 -58.66,78.12 -63.65,77.82 -5.06,-0.26 -88.67,-67.28 -87.78,-71.68 0.91,-4.42 64.91,-67.57 69.4,-68.6 4.6,-1.04 84.17,57.57 82.03,62.46"
         style="fill:#e8e1de;fill-opacity:1;fill-rule:nonzero;stroke:none"
         id="path196" />
      <path
         d="m 1198.95,2437.59 c -3.36,2.93 -63.75,61.66 -61.58,65.4 2.17,3.76 70.9,83.69 76.37,80.79 5.49,-2.81 78.83,-69.49 76.82,-73.96 -1.93,-4.5 -85.51,-77.68 -91.61,-72.23"
         style="fill:#e8e1de;fill-opacity:1;fill-rule:nonzero;stroke:none"
         id="path198" />
      <path
         d="m 1264.56,2338.16 c -3.99,6.48 -64.26,75.88 -68.6,72.63 -4.43,-3.26 -81.64,-66.01 -81.56,-72.38 0.2,-6.43 46.02,-68.94 53.04,-70.51 7.03,-1.6 101.2,63.5 97.12,70.26"
         style="fill:#e8e1de;fill-opacity:1;fill-rule:nonzero;stroke:none"
         id="path200" />
      <path
         d="m 1185.44,2426.55 c -3.19,5.59 -56.71,63.65 -59.76,64.3 -3,0.68 -75.93,-72.99 -77.94,-83.08 -1.96,-10.14 35.45,-56.66 45.64,-55.45 10.15,1.22 95.44,68.26 92.06,74.23"
         style="fill:#e8e1de;fill-opacity:1;fill-rule:nonzero;stroke:none"
         id="path202" />
      <path
         d="m 1824.25,2789.54 c -0.67,11.71 -69.9,88.75 -74.54,93 -0.3,0.25 -1.02,0.1 -2.14,-0.38 7.96,5.56 13.24,8.77 14.14,7.97 4.67,-4.25 73.89,-81.22 74.59,-93.04 0.61,-11.4 -100.15,-109.39 -118.66,-116.1 32.6,24.62 107.21,98.67 106.61,108.55"
         style="fill:#cccccc;fill-opacity:1;fill-rule:nonzero;stroke:none"
         id="path204" />
      <path
         d="m 1740.03,2901.44 c -7.43,-8.09 -97.63,-84.79 -116.37,-93.71 30.83,21.91 98.08,79.14 104.39,86.09 7.99,8.83 -94.52,117.54 -108.98,113.44 5.44,4.18 9.69,6.9 11.97,7.6 14.48,4.11 117.04,-104.6 108.99,-113.42"
         style="fill:#cccccc;fill-opacity:1;fill-rule:nonzero;stroke:none"
         id="path206" />
      <path
         d="m 1598.52,2760.24 c 5.67,4.38 9.51,7.22 10.47,7.78 6.26,3.89 88.38,-91.77 80.09,-103.45 -8.03,-11.33 -109.5,-90.98 -125.18,-98.45 31.66,22.04 106.32,81.26 113.2,90.85 7.87,11.05 -65.93,98.01 -78.58,103.27"
         style="fill:#cccccc;fill-opacity:1;fill-rule:nonzero;stroke:none"
         id="path208" />
      <path
         d="m 1591.72,2785.27 c -2.98,-8.55 -102.92,-91.23 -128.62,-105.07 36.08,24.81 114.02,89.93 116.64,97.49 3.39,9.83 -71.3,95.09 -77.95,104.01 l -0.98,0.4 c 7.07,5.81 11.9,8.73 13.04,7.19 6.64,-8.93 81.34,-94.2 77.87,-104.02"
         style="fill:#cccccc;fill-opacity:1;fill-rule:nonzero;stroke:none"
         id="path210" />
      <path
         d="m 1438.13,2624.01 c 5.48,4.95 9.03,8.13 9.59,8.67 3.66,3.4 81.32,-87.95 78.44,-96 -3.87,-10.75 -109.22,-89.35 -120.65,-97.33 l -2.05,-0.42 c 29.22,21.6 107.4,80.88 110.66,90.16 2.68,7.37 -62.35,84.71 -75.99,94.92"
         style="fill:#cccccc;fill-opacity:1;fill-rule:nonzero;stroke:none"
         id="path212" />
      <path
         d="m 1436.51,2650.02 c -8.97,-5.37 -127.18,-109.59 -132.33,-113.75 -0.65,-0.44 -1.75,-0.3 -3,0.18 28.61,25 115.66,101.4 123.28,105.96 8.57,5.11 -61.19,77.77 -72.5,86.64 5.98,5.65 9.89,8.85 10.75,8.5 5.29,-2.24 82.75,-82.17 73.8,-87.53"
         style="fill:#cccccc;fill-opacity:1;fill-rule:nonzero;stroke:none"
         id="path214" />
      <path
         d="m 1351.27,2409.58 c -1.92,4.34 -57.92,77.21 -63.5,77.83 6.34,4.64 10.81,7.6 11.89,7.66 4.92,0.27 61.67,-73.54 63.63,-77.86 1.97,-4.38 -61.11,-51.28 -77.94,-60.67 24.39,16.48 67.55,49.45 65.92,53.04"
         style="fill:#cccccc;fill-opacity:1;fill-rule:nonzero;stroke:none"
         id="path216" />
      <path
         d="m 1289.85,2509.97 c -1.77,-3.97 -66.89,-61.29 -86.51,-71.06 26.29,18.73 73.02,60.1 74.49,63.42 1.93,4.38 -66.2,66.46 -76.04,73.47 5.84,5.52 10.01,8.79 11.16,8.19 5.49,-2.82 78.92,-69.6 76.9,-74.02"
         style="fill:#cccccc;fill-opacity:1;fill-rule:nonzero;stroke:none"
         id="path218" />
      <path
         d="m 1251.72,2330.76 c -3.64,5.97 -55.63,65.94 -66.65,72.07 5.39,4.51 9.17,7.51 10.08,8.13 4.41,3.25 64.6,-66.12 68.55,-72.61 3.18,-5.09 -49.99,-43.6 -79.02,-61.35 29.57,19.33 69.81,49.23 67.04,53.76"
         style="fill:#cccccc;fill-opacity:1;fill-rule:nonzero;stroke:none"
         id="path220" />
      <path
         d="m 1184.66,2426.7 c 3.07,-5.36 -66.83,-61.06 -87.46,-72.26 27.76,19.01 78.07,60.03 75.51,64.68 -2.93,5.09 -49.12,55.27 -58.25,63.15 5.82,5.51 9.77,8.89 10.46,8.75 1,-0.26 7.6,-6.81 16.09,-15.66 1.18,-1.23 2.36,-2.5 3.56,-3.78 16.7,-17.64 38.17,-41.37 40.09,-44.88"
         style="fill:#cccccc;fill-opacity:1;fill-rule:nonzero;stroke:none"
         id="path222" />
      <path
         d="m 1714.16,2710.88 1.47,0.33 c 26.99,20.42 82.79,74.68 100.8,98.27 6.9,-9.25 11.64,-16.56 11.73,-19.55 0.67,-9.86 -74.02,-83.86 -106.6,-108.55 l -1.42,-0.33 c -9.61,-0.75 -88.24,96.12 -83.94,104.66 0.5,0.97 2.78,3.4 6.18,6.6 21.58,-31.18 64.87,-81.97 71.78,-81.43"
         style="fill:#ebebeb;fill-opacity:1;fill-rule:nonzero;stroke:none"
         id="path224" />
      <path
         d="m 1621.61,2837.97 c 26.3,18.63 78.56,62.65 97.65,79.75 9.36,-12.09 14.81,-21.15 12.67,-23.44 -6.31,-6.95 -73.42,-64.23 -104.38,-86.06 -1.64,-0.79 -2.7,-1.19 -3.2,-0.81 -6.25,4.52 -87.39,98.34 -88.16,109.8 -0.12,1.89 2.05,5.64 5.75,10.58 22.85,-31.11 71.7,-87.15 76.47,-90.61 0.48,-0.31 1.56,0.04 3.2,0.79"
         style="fill:#ebebeb;fill-opacity:1;fill-rule:nonzero;stroke:none"
         id="path226" />
      <path
         d="m 1561.92,2596.32 c 28.33,19.71 90.88,69.06 108.71,86.18 8.04,-12.19 12.73,-21.9 10.41,-25.09 -6.84,-9.64 -81.51,-68.91 -113.24,-90.88 l -1.68,-0.58 c -7.46,-0.47 -72.34,83.3 -80.75,90.48 -1.67,1.41 1.92,6.26 8.65,13.23 22.02,-26.44 60.54,-74.29 66.23,-73.98 l 1.67,0.64"
         style="fill:#ebebeb;fill-opacity:1;fill-rule:nonzero;stroke:none"
         id="path228" />
      <path
         d="m 1455.09,2709.07 c 0.13,-1.19 2.34,-0.61 6.04,1.34 30.53,21.02 90.94,70.83 110.32,90.23 8.04,-11.18 13.14,-19.82 12.24,-22.54 -2.65,-7.53 -80.58,-72.69 -116.65,-97.49 -3.73,-1.93 -5.85,-2.55 -5.97,-1.36 -0.86,6.09 -81.04,75.6 -78.83,78.36 0.43,0.45 4.44,4.94 10.87,11.96 23.01,-21.84 61.4,-56.28 61.98,-60.5"
         style="fill:#ebebeb;fill-opacity:1;fill-rule:nonzero;stroke:none"
         id="path230" />
      <path
         d="m 1505.35,2551.41 c 8.19,-11.12 13.55,-19.68 12.69,-21.91 -3.3,-9.26 -81.48,-68.55 -110.65,-90.13 -15.45,0.12 -72.81,72.59 -75.5,78.22 -0.43,1 2.65,5.06 8.25,10.98 18.64,-23.25 50.44,-59.32 61.29,-59.4 24.62,18.18 83.83,63.01 103.92,82.24"
         style="fill:#ebebeb;fill-opacity:1;fill-rule:nonzero;stroke:none"
         id="path232" />
      <path
         d="m 1414.99,2666.8 c 9.97,-12.43 16.37,-22.19 13.45,-24 -7.68,-4.55 -94.64,-80.93 -123.36,-105.96 -14.37,5.08 -66.11,63.48 -64.85,67.06 0.2,0.65 3.31,4.42 8.51,10.33 16.14,-18.62 41.08,-44.26 50.36,-47.54 24.73,21.48 92.51,80.98 115.89,100.11"
         style="fill:#ebebeb;fill-opacity:1;fill-rule:nonzero;stroke:none"
         id="path234" />
      <path
         d="m 1283.32,2386.74 c 17.22,11.63 43.63,31.4 57.23,43.35 8.04,-10.57 14.09,-18.72 14.66,-20.07 1.63,-3.63 -41.55,-36.56 -66,-53.04 -1.94,-1.18 -3.52,-1.87 -4,-1.74 -4.48,1.02 -68.5,64.13 -69.46,68.58 -0.13,1 4.07,5.22 10.63,11.15 19.59,-20.14 49.87,-49.27 52.93,-49.95 0.47,-0.09 2,0.56 4.01,1.72"
         style="fill:#ebebeb;fill-opacity:1;fill-rule:nonzero;stroke:none"
         id="path236" />
      <path
         d="m 1201.36,2469.12 c 18.88,13.42 48.28,38.6 63.81,52.92 10.17,-9.99 17.24,-17.82 16.63,-19.25 -1.53,-3.36 -48.25,-44.75 -74.56,-63.46 -2.57,-1.32 -4.38,-1.8 -5.13,-1.17 -3.39,3.02 -63.7,61.7 -61.56,65.39 0.54,0.78 3.91,5.01 9.09,11.11 17.5,-18.68 44.34,-44.74 46.5,-46.66 0.74,-0.63 2.58,-0.16 5.22,1.12"
         style="fill:#ebebeb;fill-opacity:1;fill-rule:nonzero;stroke:none"
         id="path238" />
      <path
         d="m 1182.65,2307.23 c 19.91,12.99 44.66,30.79 57.81,42.43 8.08,-9.26 14.02,-16.61 15.2,-18.49 2.78,-4.45 -37.43,-34.44 -67.07,-53.8 -9.35,-5.72 -16.3,-9.26 -17.98,-8.89 -7.03,1.62 -52.78,64.11 -52.97,70.5 0,1.14 2.61,4.24 6.76,8.46 14.17,-20.52 35.63,-48.08 40.27,-49.14 1.69,-0.42 8.6,3.19 17.98,8.93"
         style="fill:#ebebeb;fill-opacity:1;fill-rule:nonzero;stroke:none"
         id="path240" />
      <path
         d="m 1090.6,2382.72 c 1,0.1 2.56,0.77 4.68,1.94 19.6,13.52 50.66,38 66,52.84 8.1,-8.98 14.33,-16.16 15.31,-17.96 2.64,-4.61 -47.72,-45.7 -75.4,-64.67 -2.08,-1.14 -3.67,-1.83 -4.62,-1.92 -10.19,-1.28 -47.61,45.27 -45.62,55.38 0.3,1.43 2.06,4.23 4.76,7.82 11.39,-16.14 28.51,-34.19 34.89,-33.43"
         style="fill:#ebebeb;fill-opacity:1;fill-rule:nonzero;stroke:none"
         id="path242" />
      <path
         d="m 731.523,2120.95 c 6.758,1.79 150.11,-167.92 151.082,-172.32 0.95,-4.33 -609.199,-623.94 -623.14,-621.8 -13.957,2.14 -243.6056,237.15 -237.7384,253.62 5.9023,16.39 669.4184,529.77 709.7964,540.5"
         style="fill:#ae9d93;fill-opacity:1;fill-rule:nonzero;stroke:none"
         id="path244" />
      <path
         d="m 712.422,2110.67 c 6.824,1.75 149.621,-169.23 150.625,-173.66 0.945,-4.44 -611.942,-631.64 -625.984,-629.47 -13.911,2.08 -242.89503,238.99 -236.945812,255.57 5.859372,16.7 671.847812,536.68 712.304812,547.56"
         style="fill:#c7b8b3;fill-opacity:1;fill-rule:nonzero;stroke:none"
         id="path246" />
      <path
         d="m 153.32,1665.79 c 9.453,0.74 88.145,-96.15 83.836,-104.67 -4.324,-8.51 -124.832,-109.04 -129.453,-104.8 -4.617,4.2 -73.8749,81.2 -74.5467,93 -0.7149,11.77 106.2307,115.38 120.1637,116.47"
         style="fill:#e8e1de;fill-opacity:1;fill-rule:nonzero;stroke:none"
         id="path248" />
      <path
         d="m 248.965,1539.44 c 6.301,-4.5 87.43,-98.37 88.176,-109.82 0.847,-11.5 -84.387,-94 -98.789,-98.07 -14.426,-4.11 -117.024,104.61 -108.938,113.41 8.008,8.84 113.848,98.57 119.551,94.48"
         style="fill:#e8e1de;fill-opacity:1;fill-rule:nonzero;stroke:none"
         id="path250" />
      <path
         d="m 180.344,1681.82 c -8.274,-11.67 73.867,-107.36 80.183,-103.47 6.243,3.85 135.918,104.85 127.493,112.03 -8.442,7.21 -73.262,90.96 -80.832,90.57 -7.508,-0.43 -118.489,-87.28 -126.844,-99.13"
         style="fill:#e8e1de;fill-opacity:1;fill-rule:nonzero;stroke:none"
         id="path252" />
      <path
         d="m 412.355,1667.57 c 0.829,-6.08 80.946,-75.59 78.75,-78.32 -2.257,-2.77 -128.886,-141.03 -135.558,-132.13 -6.582,8.93 -81.289,94.2 -77.871,104 3.429,9.77 133.222,116.25 134.679,106.45"
         style="fill:#e8e1de;fill-opacity:1;fill-rule:nonzero;stroke:none"
         id="path254" />
      <path
         d="m 343.23,1809.73 c -2.878,-8.05 74.817,-99.39 78.489,-96.01 3.601,3.41 122.5,109.63 119.719,115.52 -2.805,5.92 -66.133,85.78 -77.5,77.82 -11.477,-7.91 -116.782,-86.57 -120.708,-97.33"
         style="fill:#e8e1de;fill-opacity:1;fill-rule:nonzero;stroke:none"
         id="path256" />
      <path
         d="m 565.305,1810.12 c 7.449,5.96 69.175,-63.3 67.84,-67.21 -1.446,-3.91 -121.114,-136.36 -126.415,-134.06 -5.335,2.27 -82.753,82.17 -73.8,87.56 9.011,5.33 127.175,109.59 132.375,113.71"
         style="fill:#e8e1de;fill-opacity:1;fill-rule:nonzero;stroke:none"
         id="path258" />
      <path
         d="m 506.121,1929.17 c 1.965,-4.3 58.676,-78.11 63.652,-77.83 5.051,0.27 88.684,67.27 87.805,71.68 -0.93,4.42 -64.922,67.58 -69.441,68.61 -4.563,1.04 -84.16,-57.58 -82.016,-62.46"
         style="fill:#e8e1de;fill-opacity:1;fill-rule:nonzero;stroke:none"
         id="path260" />
      <path
         d="m 671.238,1908.65 c 3.352,-2.92 63.742,-61.68 61.567,-65.39 -2.153,-3.77 -70.903,-83.7 -76.367,-80.81 -5.481,2.83 -78.833,69.5 -76.797,73.98 1.902,4.48 85.504,77.67 91.597,72.22"
         style="fill:#e8e1de;fill-opacity:1;fill-rule:nonzero;stroke:none"
         id="path262" />
      <path
         d="m 605.637,2008.09 c 3.972,-6.49 64.226,-75.88 68.593,-72.63 4.422,3.24 81.637,66.01 81.551,72.37 -0.207,6.43 -46.023,68.94 -53.047,70.51 -7.019,1.61 -101.191,-63.49 -97.097,-70.25"
         style="fill:#e8e1de;fill-opacity:1;fill-rule:nonzero;stroke:none"
         id="path264" />
      <path
         d="m 684.734,1919.7 c 3.196,-5.59 56.704,-63.64 59.77,-64.31 2.996,-0.68 75.945,72.99 77.93,83.09 1.968,10.14 -35.442,56.65 -45.649,55.44 -10.137,-1.21 -95.418,-68.25 -92.051,-74.22"
         style="fill:#e8e1de;fill-opacity:1;fill-rule:nonzero;stroke:none"
         id="path266" />
      <path
         d="m 45.9258,1556.71 c 0.6758,-11.72 69.9142,-88.77 74.5542,-93.01 0.301,-0.24 1.012,-0.09 2.125,0.37 -7.937,-5.56 -13.218,-8.75 -14.136,-7.96 -4.66,4.25 -73.887,81.24 -74.5823,93.05 -0.625,11.4 100.1443,109.39 118.6523,116.1 -32.598,-24.64 -107.1952,-98.69 -106.6132,-108.55"
         style="fill:#cccccc;fill-opacity:1;fill-rule:nonzero;stroke:none"
         id="path268" />
      <path
         d="m 130.164,1444.82 c 7.426,8.07 97.609,84.77 116.352,93.7 -30.825,-21.92 -98.078,-79.13 -104.375,-86.09 -8.008,-8.83 94.507,-117.54 108.964,-113.44 -5.421,-4.19 -9.691,-6.92 -11.957,-7.61 -14.492,-4.09 -117.039,104.6 -108.984,113.44"
         style="fill:#cccccc;fill-opacity:1;fill-rule:nonzero;stroke:none"
         id="path270" />
      <path
         d="m 271.672,1586 c -5.688,-4.37 -9.504,-7.21 -10.488,-7.78 -6.25,-3.89 -88.371,91.77 -80.079,103.44 8.028,11.33 109.5,90.99 125.184,98.48 -31.66,-22.06 -106.328,-81.28 -113.223,-90.88 -7.851,-11.04 65.95,-98 78.606,-103.26"
         style="fill:#cccccc;fill-opacity:1;fill-rule:nonzero;stroke:none"
         id="path272" />
      <path
         d="m 278.457,1560.97 c 2.981,8.54 102.922,91.23 128.633,105.08 -36.082,-24.82 -114.031,-89.95 -116.652,-97.49 -3.387,-9.84 71.3,-95.08 77.953,-104.02 l 0.972,-0.4 c -7.058,-5.8 -11.883,-8.71 -13.023,-7.19 -6.645,8.93 -81.36,94.19 -77.883,104.02"
         style="fill:#cccccc;fill-opacity:1;fill-rule:nonzero;stroke:none"
         id="path274" />
      <path
         d="m 432.043,1722.23 c -5.461,-4.95 -9.016,-8.14 -9.594,-8.66 -3.648,-3.41 -81.297,87.93 -78.433,96 3.894,10.74 109.238,89.35 120.664,97.32 l 2.039,0.42 c -29.231,-21.61 -107.395,-80.88 -110.664,-90.16 -2.664,-7.35 62.343,-84.72 75.988,-94.92"
         style="fill:#cccccc;fill-opacity:1;fill-rule:nonzero;stroke:none"
         id="path276" />
      <path
         d="m 433.672,1696.22 c 8.984,5.37 127.18,109.61 132.336,113.76 0.652,0.42 1.746,0.29 2.984,-0.17 -28.594,-25.01 -115.633,-101.43 -123.269,-105.97 -8.567,-5.13 61.179,-77.76 72.5,-86.64 -5.989,-5.66 -9.895,-8.85 -10.75,-8.52 -5.293,2.25 -82.746,82.19 -73.801,87.54"
         style="fill:#cccccc;fill-opacity:1;fill-rule:nonzero;stroke:none"
         id="path278" />
      <path
         d="m 518.906,1936.66 c 1.946,-4.34 57.93,-77.21 63.504,-77.82 -6.347,-4.64 -10.816,-7.61 -11.89,-7.67 -4.922,-0.28 -61.665,73.54 -63.625,77.86 -1.985,4.38 61.125,51.28 77.941,60.68 -24.387,-16.49 -67.57,-49.46 -65.93,-53.05"
         style="fill:#cccccc;fill-opacity:1;fill-rule:nonzero;stroke:none"
         id="path280" />
      <path
         d="m 580.32,1836.28 c 1.789,3.96 66.907,61.29 86.535,71.04 -26.308,-18.71 -73.027,-60.09 -74.492,-63.41 -1.933,-4.39 66.184,-66.46 76.043,-73.46 -5.855,-5.53 -10.027,-8.81 -11.172,-8.21 -5.488,2.85 -78.914,69.6 -76.914,74.04"
         style="fill:#cccccc;fill-opacity:1;fill-rule:nonzero;stroke:none"
         id="path282" />
      <path
         d="m 618.457,2015.48 c 3.645,-5.98 55.606,-65.96 66.648,-72.06 -5.378,-4.51 -9.167,-7.52 -10.066,-8.15 -4.426,-3.25 -64.609,66.13 -68.574,72.62 -3.164,5.09 49.988,43.61 79.043,61.35 -29.578,-19.33 -69.817,-49.24 -67.051,-53.76"
         style="fill:#cccccc;fill-opacity:1;fill-rule:nonzero;stroke:none"
         id="path284" />
      <path
         d="m 685.535,1919.54 c -3.101,5.35 66.809,61.07 87.445,72.27 -27.746,-19.02 -78.058,-60.03 -75.492,-64.69 2.922,-5.1 49.094,-55.27 58.227,-63.15 -5.82,-5.51 -9.758,-8.89 -10.449,-8.75 -1.008,0.26 -7.61,6.8 -16.094,15.65 -1.164,1.25 -2.356,2.51 -3.567,3.78 -16.699,17.65 -38.164,41.39 -40.07,44.89"
         style="fill:#cccccc;fill-opacity:1;fill-rule:nonzero;stroke:none"
         id="path286" />
      <path
         d="m 156.016,1635.37 -1.446,-0.33 c -27.011,-20.44 -82.8005,-74.68 -100.82,-98.28 -6.8867,9.26 -11.6406,16.57 -11.7461,19.56 -0.6562,9.84 74.0431,83.85 106.6091,108.55 l 1.438,0.31 c 9.597,0.75 88.211,-96.11 83.941,-104.64 -0.515,-0.98 -2.801,-3.41 -6.199,-6.6 -21.582,31.17 -64.855,81.95 -71.777,81.43"
         style="fill:#ebebeb;fill-opacity:1;fill-rule:nonzero;stroke:none"
         id="path288" />
      <path
         d="m 248.563,1508.28 c -26.29,-18.63 -78.551,-62.64 -97.625,-79.75 -9.375,12.09 -14.833,21.15 -12.676,23.42 6.301,6.96 73.418,64.25 104.367,86.08 1.648,0.79 2.691,1.18 3.211,0.8 6.25,-4.52 87.375,-98.34 88.144,-109.81 0.118,-1.88 -2.043,-5.61 -5.73,-10.58 -22.863,31.11 -71.711,87.17 -76.477,90.62 -0.488,0.31 -1.562,-0.03 -3.214,-0.78"
         style="fill:#ebebeb;fill-opacity:1;fill-rule:nonzero;stroke:none"
         id="path290" />
      <path
         d="m 308.262,1749.91 c -28.328,-19.68 -90.879,-69.04 -108.711,-86.17 -8.047,12.21 -12.715,21.91 -10.403,25.1 6.836,9.64 81.504,68.9 113.215,90.87 l 1.692,0.59 c 7.468,0.47 72.363,-83.32 80.75,-90.49 1.687,-1.42 -1.914,-6.26 -8.66,-13.24 -21.997,26.43 -60.532,74.31 -66.204,73.99 l -1.679,-0.65"
         style="fill:#ebebeb;fill-opacity:1;fill-rule:nonzero;stroke:none"
         id="path292" />
      <path
         d="m 415.09,1637.18 c -0.141,1.18 -2.324,0.6 -6.035,-1.36 -30.539,-21.01 -90.942,-70.83 -110.305,-90.21 -8.059,11.17 -13.164,19.81 -12.246,22.54 2.617,7.54 80.574,72.68 116.641,97.49 3.718,1.94 5.832,2.56 5.964,1.35 0.864,-6.1 81.036,-75.59 78.84,-78.36 -0.437,-0.44 -4.441,-4.95 -10.886,-11.96 -23,21.83 -61.387,56.28 -61.973,60.51"
         style="fill:#ebebeb;fill-opacity:1;fill-rule:nonzero;stroke:none"
         id="path294" />
      <path
         d="m 364.844,1794.83 c -8.184,11.11 -13.567,19.68 -12.715,21.9 3.293,9.27 81.484,68.55 110.676,90.14 15.449,-0.11 72.781,-72.59 75.488,-78.23 0.437,-1 -2.648,-5.04 -8.234,-10.96 -18.664,23.23 -50.457,59.32 -61.309,59.39 -24.629,-18.17 -83.84,-63.02 -103.906,-82.24"
         style="fill:#ebebeb;fill-opacity:1;fill-rule:nonzero;stroke:none"
         id="path296" />
      <path
         d="m 455.176,1679.44 c -9.949,12.44 -16.336,22.2 -13.438,24 7.688,4.55 94.657,80.94 123.367,105.96 14.368,-5.07 66.118,-63.49 64.829,-67.06 -0.168,-0.65 -3.301,-4.43 -8.496,-10.33 -16.145,18.61 -41.086,44.26 -50.364,47.54 -24.726,-21.47 -92.511,-80.98 -115.898,-100.11"
         style="fill:#ebebeb;fill-opacity:1;fill-rule:nonzero;stroke:none"
         id="path298" />
      <path
         d="m 586.848,1959.5 c -17.192,-11.63 -43.633,-31.41 -57.219,-43.36 -8.035,10.57 -14.082,18.72 -14.656,20.08 -1.645,3.63 41.543,36.56 66.011,53.03 1.926,1.2 3.496,1.87 3.996,1.75 4.473,-1.02 68.497,-64.14 69.434,-68.59 0.149,-1 -4.062,-5.22 -10.605,-11.14 -19.579,20.14 -49.883,49.28 -52.942,49.95 -0.457,0.08 -1.98,-0.56 -4.019,-1.72"
         style="fill:#ebebeb;fill-opacity:1;fill-rule:nonzero;stroke:none"
         id="path300" />
      <path
         d="m 668.828,1877.13 c -18.887,-13.45 -48.293,-38.61 -63.801,-52.94 -10.172,10.01 -17.261,17.81 -16.66,19.26 1.543,3.36 48.274,44.75 74.582,63.46 2.578,1.31 4.364,1.79 5.125,1.17 3.379,-3.01 63.696,-61.7 61.567,-65.39 -0.547,-0.78 -3.926,-4.99 -9.106,-11.12 -17.5,18.7 -44.336,44.75 -46.492,46.67 -0.75,0.63 -2.59,0.15 -5.215,-1.11"
         style="fill:#ebebeb;fill-opacity:1;fill-rule:nonzero;stroke:none"
         id="path302" />
      <path
         d="m 687.539,2039.02 c -19.922,-13.01 -44.68,-30.79 -57.812,-42.45 -8.094,9.28 -14.024,16.62 -15.215,18.5 -2.754,4.44 37.429,34.44 67.07,53.81 9.356,5.72 16.301,9.25 17.996,8.88 7.016,-1.62 52.766,-64.1 52.981,-70.5 -0.008,-1.14 -2.625,-4.24 -6.789,-8.45 -14.168,20.52 -35.625,48.08 -40.262,49.12 -1.699,0.43 -8.594,-3.18 -17.969,-8.91"
         style="fill:#ebebeb;fill-opacity:1;fill-rule:nonzero;stroke:none"
         id="path304" />
      <path
         d="m 779.59,1963.52 c -1.027,-0.09 -2.57,-0.78 -4.688,-1.94 -19.609,-13.51 -50.656,-38 -65.984,-52.84 -8.117,9 -14.328,16.16 -15.344,17.97 -2.617,4.6 47.727,45.68 75.418,64.66 2.094,1.13 3.653,1.83 4.629,1.92 10.18,1.28 47.602,-45.27 45.609,-55.37 -0.292,-1.44 -2.05,-4.24 -4.765,-7.83 -11.367,16.13 -28.508,34.2 -34.875,33.43"
         style="fill:#ebebeb;fill-opacity:1;fill-rule:nonzero;stroke:none"
         id="path306" />
      <path
         d="m 941.602,2212.45 c -11.536,0.08 -14.5,0.06 -14.5,0.06 -9.653,-13.81 -2.817,-93.57 -2.817,-93.57 h 20.676 c 24.133,1.56 42.871,23.75 42.012,49.51 -1.043,25.87 -21.192,43.82 -45.371,44"
         style="fill:#562e12;fill-opacity:1;fill-rule:nonzero;stroke:none"
         id="path308" />
      <path
         d="m 923.445,2212.45 c -24.09,-1.53 -42.82,-23.71 -41.851,-49.5 0.933,-25.87 21.121,-45.57 45.215,-44.01 24.129,1.56 42.871,23.75 42.007,49.51 -1.043,25.87 -21.238,45.53 -45.371,44"
         style="fill:#753f1a;fill-opacity:1;fill-rule:nonzero;stroke:none"
         id="path310" />
      <path
         d="m 924.324,2201.93 c -18.64,-1.22 -33.172,-18.42 -32.461,-38.41 0.637,-20 16.367,-35.28 35.102,-34.06 18.648,1.16 33.25,18.38 32.5,38.39 -0.766,19.98 -16.399,35.29 -35.141,34.08"
         style="fill:#47210e;fill-opacity:1;fill-rule:nonzero;stroke:none"
         id="path312" />
      <path
         d="m 924.055,2195.09 c -14.153,-0.88 -25.442,-14.7 -24.825,-30.84 0.528,-16.08 12.645,-28.48 26.954,-27.56 14.453,0.92 25.515,14.76 24.976,30.85 -0.633,16.14 -12.664,28.5 -27.105,27.55"
         style="fill:#936134;fill-opacity:1;fill-rule:nonzero;stroke:none"
         id="path314" />
    </g>
  </g>
</svg>
